<svg width="128" height="92" viewBox="0 0 128 92" fill="none" xmlns="http://www.w3.org/2000/svg">
<path d="M127.5 83.9963C127.434 84.1954 127.302 84.3612 127.268 84.5603C126.177 88.7736 122.936 91.4276 118.636 91.6598C118.339 91.6598 118.074 91.6598 117.777 91.6598C81.9586 91.6598 46.1406 91.6598 10.3227 91.6598C5.69245 91.6598 2.18672 89.238 0.963021 85.1906C0.698437 84.2949 0.566146 83.3328 0.566146 82.3707C0.5 58.2522 0.5 34.1338 0.5 10.0153C0.5 5.50342 3.27812 1.98683 7.61068 0.892048C7.80911 0.858873 7.97448 0.759347 8.17292 0.659821C45.3799 0.659821 82.587 0.659821 119.794 0.659821C122.473 1.3565 124.755 2.61717 126.144 5.10532C126.706 6.13375 127.037 7.29489 127.5 8.38968C127.5 33.5698 127.5 58.783 127.5 83.9963ZM63.9339 85.5887C81.6609 85.5887 99.388 85.5887 117.148 85.5887C117.71 85.5887 118.306 85.5887 118.868 85.5224C120.158 85.3565 120.985 84.6267 121.315 83.366C121.448 82.802 121.481 82.2048 121.481 81.6409C121.481 57.9537 121.481 34.2996 121.481 10.6124C121.481 10.0484 121.448 9.45129 121.315 8.88731C121.018 7.75935 120.257 7.02949 119.066 6.83044C118.537 6.73091 118.008 6.73091 117.479 6.73091C81.7932 6.73091 46.1406 6.73091 10.4549 6.73091C9.95885 6.73091 9.46276 6.73091 8.96667 6.83044C7.7099 7.06266 6.91615 7.85887 6.68464 9.11954C6.58542 9.68352 6.58542 10.2807 6.58542 10.8447C6.58542 34.3992 6.58542 57.9537 6.58542 81.5082C6.58542 81.9726 6.58542 82.4371 6.65156 82.8684C6.85 84.4608 7.84219 85.4229 9.42969 85.5556C9.92578 85.5887 10.4219 85.5887 10.918 85.5887C28.5458 85.5887 46.2398 85.5887 63.9339 85.5887Z" fill="#D3D3D5"/>
<path d="M42.8987 67.5413C42.8987 70.4276 42.8987 73.148 42.8987 75.8352C42.8987 78.5556 41.8404 79.6503 39.1945 79.6503C33.5721 79.6503 27.9497 79.6503 22.3273 79.6503C19.7477 79.6503 18.6893 78.5224 18.6562 75.9015C18.6562 72.3518 18.6562 68.7688 18.6562 65.2191C18.6562 62.6314 19.7807 61.5034 22.3604 61.5034C50.3732 61.5034 78.3859 61.5034 106.432 61.5034C108.383 61.5034 109.64 62.6977 109.64 64.5224C109.673 66.4465 108.383 67.6077 106.233 67.6077C85.662 67.6077 65.0576 67.6077 44.4862 67.6077C43.9901 67.5413 43.5271 67.5413 42.8987 67.5413ZM24.7417 73.5129C28.7766 73.5129 32.7453 73.5129 36.681 73.5129C36.681 71.5224 36.681 69.5982 36.681 67.6409C32.6792 67.6409 28.7435 67.6409 24.7417 67.6409C24.7417 69.5982 24.7417 71.4892 24.7417 73.5129Z" fill="#D3D3D5"/>
<path d="M89.9958 28.0295C88.6067 26.6693 87.2838 25.4086 85.9609 24.0816C84.8034 22.8873 84.7703 21.1954 85.8286 19.9347C86.9862 18.5413 88.8382 18.5413 90.3927 20.0674C91.6494 21.2617 92.807 22.5556 94.1961 23.9821C95.519 22.5887 96.7758 21.2617 98.0656 20.0011C99.157 18.9394 100.48 18.7404 101.704 19.4039C103.556 20.366 103.853 22.5224 102.332 24.2475C101.439 25.2759 100.447 26.2048 99.4547 27.1669C99.1239 27.4655 98.6609 27.6314 98.1648 27.93C99.7523 29.4892 101.009 30.7167 102.233 31.9442C103.853 33.5366 103.953 35.1954 102.564 36.5887C101.174 37.9489 99.5869 37.8494 98.0325 36.257C96.875 35.0958 95.6843 33.9015 94.5268 32.7404C94.4606 32.674 94.3945 32.6409 94.163 32.475C92.8401 33.802 91.4841 35.1954 90.1281 36.5224C88.5406 38.0816 86.3247 37.6835 85.2664 35.7262C84.6049 34.4655 84.8034 33.3375 85.8617 32.2428C87.2177 30.8494 88.5406 29.4892 89.9958 28.0295Z" fill="#D3D3D5"/>
<path d="M33.8382 32.2428C32.4161 33.7025 31.1924 34.9631 29.9687 36.1906C28.5135 37.6172 26.7937 37.6835 25.5039 36.3565C24.214 35.0627 24.2802 33.4039 25.6692 31.9774C26.926 30.7167 28.1828 29.4892 29.5718 28.129C28.2489 26.802 26.8929 25.6409 25.7684 24.2807C25.2062 23.6172 24.7432 22.5887 24.7763 21.7593C24.8755 19.3044 27.5213 18.1101 29.4726 19.603C30.5971 20.4655 31.5231 21.5271 32.5153 22.5224C32.9122 22.9205 33.2099 23.4513 33.739 24.1812C35.2934 22.5224 36.5171 21.129 37.8401 19.8352C39.1299 18.5745 41.0812 18.7404 42.2388 20.0674C43.2971 21.2949 43.1648 22.8873 41.875 24.3139C41.2796 24.9442 40.6843 25.5745 40.0229 26.1717C39.3945 26.7688 38.733 27.3328 37.8401 28.129C39.2953 29.4892 40.5851 30.6172 41.7757 31.8447C43.0656 33.1385 43.1317 34.6977 42.1065 35.9916C40.9158 37.4845 38.9976 37.584 37.5424 36.1906C36.2856 34.93 35.1281 33.6361 33.8382 32.2428Z" fill="#D3D3D5"/>
</svg>
