<svg width="108" height="109" viewBox="0 0 108 109" fill="none" xmlns="http://www.w3.org/2000/svg">
<g clip-path="url(#clip0_2210_23807)">
<path d="M50.808 108.16C48.7557 107.886 46.7033 107.704 44.651 107.339C32.1999 105.104 21.8013 99.2206 13.4094 89.7797C5.83846 81.1598 1.36886 71.0348 0.274267 59.5872C-1.09398 45.4486 2.50906 32.6328 11.2202 21.322C19.2472 10.8777 29.7371 4.1277 42.6898 1.43683C58.8351 -1.93817 73.6121 1.39122 86.7472 11.3338C97.3283 19.3152 103.987 29.9419 106.769 42.9402C107.271 45.2206 107.453 47.5922 107.818 49.9182C107.864 50.2831 107.955 50.648 108.001 51.0584C108.001 53.1564 108.001 55.2544 108.001 57.398C107.909 58.1733 107.818 58.903 107.727 59.6784C106.45 71.3084 101.98 81.5703 94.1814 90.2358C85.8807 99.4486 75.5733 105.241 63.3047 107.384C61.2523 107.749 59.1999 107.932 57.1476 108.205C55.0496 108.16 52.9516 108.16 50.808 108.16ZM54.0462 6.04324C27.5023 5.95203 5.88406 27.5247 5.83846 54.1142C5.79285 80.7037 27.2743 102.231 53.9094 102.322C80.4533 102.413 102.072 80.8405 102.117 54.251C102.208 27.7071 80.6357 6.08885 54.0462 6.04324Z" fill="#D3D3D5"/>
<path d="M80.4535 75.2308C78.9485 76.4166 77.4434 77.5568 75.9383 78.7426C70.1917 71.9014 62.9856 68.0703 54.0465 68.1159C45.1073 68.1159 37.8556 71.8558 32.0633 78.7426C30.5583 77.6024 29.0988 76.4166 27.5938 75.2764C39.315 59.2223 65.9958 56.7139 80.4535 75.2308Z" fill="#D3D3D5"/>
<path d="M41.7772 42.2105C41.7315 45.4487 39.0863 48.0484 35.8937 47.9571C32.6555 47.8659 30.1015 45.2207 30.1471 42.0281C30.1927 38.8355 32.9292 36.1902 36.0761 36.2815C39.3143 36.4183 41.8228 39.018 41.7772 42.2105Z" fill="#D3D3D5"/>
<path d="M72.1074 47.9571C68.9148 47.9571 66.2695 45.3118 66.2695 42.1192C66.2695 38.9266 68.9148 36.2814 72.1074 36.2814C75.2999 36.2814 77.9452 38.9266 77.9452 42.1192C77.9452 45.3118 75.2999 47.9571 72.1074 47.9571Z" fill="#D3D3D5"/>
</g>
<defs>
<clipPath id="clip0_2210_23807">
<rect width="108" height="108" fill="white" transform="translate(0 0.15979)"/>
</clipPath>
</defs>
</svg>
