<svg width="16" height="17" viewBox="0 0 16 17" fill="none" xmlns="http://www.w3.org/2000/svg">
<path fill-rule="evenodd" clip-rule="evenodd" d="M8.00065 1.65295C4.31875 1.65295 1.33398 4.63772 1.33398 8.31962C1.33398 12.0015 4.31875 14.9863 8.00065 14.9863C11.6825 14.9863 14.6673 12.0015 14.6673 8.31962C14.6673 6.55151 13.9649 4.85582 12.7147 3.60558C11.4645 2.35533 9.76876 1.65295 8.00065 1.65295ZM8.66732 10.9863C8.66732 11.3545 8.36884 11.653 8.00065 11.653C7.63246 11.653 7.33398 11.3545 7.33398 10.9863V7.65295C7.33398 7.28476 7.63246 6.98629 8.00065 6.98629C8.36884 6.98629 8.66732 7.28476 8.66732 7.65295V10.9863ZM7.33398 5.65295C7.33398 6.02114 7.63246 6.31962 8.00065 6.31962C8.36884 6.31962 8.66732 6.02114 8.66732 5.65295C8.66732 5.28476 8.36884 4.98629 8.00065 4.98629C7.63246 4.98629 7.33398 5.28476 7.33398 5.65295Z" fill="#637381"/>
</svg>
