<svg width="100" height="101" viewBox="0 0 100 101" fill="none" xmlns="http://www.w3.org/2000/svg">
<circle cx="50" cy="50.1599" r="50" fill="#7234E9" fill-opacity="0.05"/>
<path d="M80.6458 31.2039L45.6797 66.3715L32.6861 53.3145L37.0071 48.9725L45.6797 57.6874L76.3248 26.8926L80.6458 31.2039ZM73.8732 46.7245C74.2716 48.4798 74.5168 50.3274 74.5168 52.2059C74.5168 65.8172 63.5458 76.8418 50.0006 76.8418C36.4555 76.8418 25.4845 65.8172 25.4845 52.2059C25.4845 38.5946 36.4555 27.5701 50.0006 27.5701C54.8426 27.5701 59.3168 28.9867 63.1168 31.4194L67.5297 26.985C62.5651 23.4744 56.528 21.4111 50.0006 21.4111C33.0845 21.4111 19.3555 35.2072 19.3555 52.2059C19.3555 69.2047 33.0845 83.0007 50.0006 83.0007C66.9168 83.0007 80.6458 69.2047 80.6458 52.2059C80.6458 48.5413 79.9716 45.0307 78.8071 41.7665L73.8732 46.7245Z" fill="#D3D3D5"/>
</svg>
