<svg width="192" height="50" viewBox="0 0 192 50" fill="none" xmlns="http://www.w3.org/2000/svg">
<path d="M120.523 17.2312C119.201 17.5642 118.1 18.2672 117.146 19.3401C116.595 20.0061 116.118 20.7091 115.787 21.5231C116.778 19.4511 118.467 17.8602 120.523 17.2312Z" fill="#1C1C1C"/>
<path d="M116.449 30.5501C116.669 30.8831 116.89 31.2161 117.183 31.5121C117.624 31.9931 118.065 32.4 118.579 32.733C117.734 32.1781 117 31.4381 116.449 30.5501Z" fill="#1C1C1C"/>
<path d="M100.479 20.3023C100.258 19.9693 100.038 19.6733 99.781 19.3773C99.2303 18.7484 98.6061 18.2674 97.9453 17.8604C98.9366 18.4154 99.781 19.2663 100.479 20.3023Z" fill="#1C1C1C"/>
<path d="M89.0237 30.8458C88.6933 30.3648 88.3996 29.8099 88.1426 29.2549C88.216 29.5879 88.8034 30.5868 89.0237 30.8458Z" fill="#1C1C1C"/>
<path d="M12.2568 12.827C8.91595 12.827 6.16246 14.011 3.99638 16.4159C1.83031 18.7838 0.765625 21.8177 0.765625 25.4806C0.765625 29.1805 1.86702 32.2144 4.0331 34.5453C6.19917 36.8762 9.13623 38.0602 12.8075 38.0602C16.589 38.0602 19.6362 36.8392 21.9124 34.3973C22.2795 34.0273 22.2428 33.3983 21.839 33.0653L20.0033 31.5114C19.6362 31.2154 19.0855 31.2154 18.7551 31.5854C17.3233 33.1763 15.3408 33.9903 12.7708 33.9903C10.4946 33.9903 8.73238 33.3983 7.48414 32.2144C6.41945 31.2154 5.79533 29.8834 5.57505 28.1445C5.50162 27.5895 5.94218 27.1085 6.49288 27.1085H22.2428C22.7568 27.1085 23.1607 26.7015 23.1607 26.1836V25.2586C23.1607 21.6697 22.2061 18.7098 20.297 16.3789C18.3879 14.011 15.7079 12.827 12.2568 12.827ZM17.4701 23.2607H6.52959C5.9789 23.2607 5.53834 22.7427 5.64848 22.1877C5.90547 20.7447 6.52959 19.5608 7.52085 18.6358C8.73238 17.4888 10.311 16.8969 12.2568 16.8969C14.1659 16.8969 15.6712 17.4888 16.7726 18.6358C17.6537 19.5978 18.2044 20.7817 18.4247 22.2247C18.4614 22.7797 18.0208 23.2607 17.4701 23.2607Z" fill="#1C1C1C"/>
<path d="M43.2065 24.4454C43.023 24.1494 43.023 23.7424 43.2432 23.4464L49.2642 14.7517C49.668 14.1597 49.2642 13.3088 48.5299 13.3088H45.1523C44.8586 13.3088 44.5649 13.4568 44.4181 13.7158L35.9373 26.3693C35.4233 27.1093 34.2852 26.7763 34.2852 25.8514V1.76515C34.2852 1.24717 33.8814 0.840179 33.3674 0.840179H30.5038C29.9898 0.840179 29.5859 1.24717 29.5859 1.76515V36.655C29.5859 37.173 29.9898 37.58 30.5038 37.58H32.8901C33.1838 37.58 33.4775 37.432 33.6244 37.173L39.1314 28.9963C39.4985 28.4413 40.3062 28.4783 40.6366 29.0333L45.6663 37.136C45.8499 37.395 46.1069 37.58 46.4373 37.58H49.7782C50.4757 37.58 50.9163 36.803 50.5492 36.174L43.2065 24.4454Z" fill="#1C1C1C"/>
<path d="M59.0667 9.38608C58.1856 9.38608 57.4513 9.68207 56.8639 10.274C56.2765 10.866 56.0195 11.606 56.0195 12.457C56.0195 13.3449 56.3132 14.0849 56.8639 14.6769C57.4513 15.2689 58.1856 15.5649 59.0667 15.5649C59.9111 15.5649 60.6454 15.2689 61.2328 14.6769C61.8202 14.0849 62.1139 13.3449 62.1139 12.457C62.1139 11.569 61.8202 10.866 61.2328 10.274C60.6454 9.68207 59.9111 9.38608 59.0667 9.38608Z" fill="#1C1C1C"/>
<path d="M60.4611 18.7108H57.5975C57.0835 18.7108 56.6797 19.1178 56.6797 19.6358V36.6553C56.6797 37.1732 57.0835 37.5802 57.5975 37.5802H60.4611C60.9751 37.5802 61.379 37.1732 61.379 36.6553V19.6358C61.3423 19.1178 60.9384 18.7108 60.4611 18.7108Z" fill="#1C1C1C"/>
<path d="M72.3558 9.38608C71.4747 9.38608 70.7404 9.68207 70.153 10.274C69.5656 10.866 69.3086 11.606 69.3086 12.457C69.3086 13.3449 69.6023 14.0849 70.153 14.6769C70.7404 15.2689 71.4747 15.5649 72.3558 15.5649C73.2002 15.5649 73.9345 15.2689 74.5219 14.6769C75.1093 14.0849 75.403 13.3449 75.403 12.457C75.403 11.569 75.1093 10.866 74.5219 10.274C73.9345 9.68207 73.2369 9.38608 72.3558 9.38608Z" fill="#1C1C1C"/>
<path d="M73.7522 18.7108H70.8885C70.3745 18.7108 69.9707 19.1178 69.9707 19.6358V36.6553C69.9707 37.1732 70.3745 37.5802 70.8885 37.5802H73.7522C74.2661 37.5802 74.67 37.1732 74.67 36.6553V19.6358C74.67 19.1178 74.2661 18.7108 73.7522 18.7108Z" fill="#1C1C1C"/>
<path d="M95.4489 12.827C92.8423 12.827 90.7129 13.493 89.0976 14.8249C88.5101 15.3059 87.6657 14.9359 87.629 14.1959V14.159C87.5923 13.678 87.1885 13.308 86.7112 13.308H84.2147C83.7007 13.308 83.2969 13.715 83.2969 14.2329V47.7909C83.2969 48.3088 83.7007 48.7158 84.2147 48.7158H87.0783C87.5923 48.7158 87.9962 48.3088 87.9962 47.7909V37.0612C87.9962 36.3212 88.8406 35.8772 89.4647 36.3212C91.0434 37.4682 93.0626 38.0602 95.4856 38.0602C98.7898 38.0602 101.433 36.8762 103.489 34.5083C105.545 32.1404 106.573 29.1065 106.573 25.4436C106.573 21.7807 105.545 18.7468 103.489 16.3789C101.396 14.011 98.7164 12.827 95.4489 12.827ZM94.9717 33.9903C92.6954 33.9903 90.6395 32.7693 89.3178 30.8454C89.0976 30.5864 88.5101 29.5874 88.4367 29.2545C87.9594 28.1075 87.7025 26.8495 87.7025 25.4806C87.7025 24.1486 88.3266 18.6728 93.136 17.2299C93.7234 17.0449 94.3475 16.9709 94.9717 16.9709C96.1465 16.9709 97.2479 17.3038 98.2024 17.8588C98.8633 18.2288 99.4874 18.7468 100.038 19.3758C100.295 19.6718 100.515 19.9678 100.736 20.3008C101.69 21.7437 102.241 23.5566 102.241 25.4806C102.278 30.1794 99.0101 33.9903 94.9717 33.9903Z" fill="#1C1C1C"/>
<path d="M132.749 13.308H130.253C129.776 13.308 129.372 13.678 129.335 14.159V14.1959C129.298 14.9359 128.417 15.3059 127.866 14.8249C126.251 13.493 124.122 12.827 121.515 12.827C118.211 12.827 115.568 14.011 113.512 16.3789C111.456 18.7468 110.428 21.7807 110.428 25.4436C110.428 29.1065 111.456 32.1404 113.512 34.5083C115.568 36.8762 118.248 38.0602 121.515 38.0602C124.122 38.0602 126.251 37.3942 127.866 36.0622C128.454 35.5813 129.298 35.9512 129.335 36.6912V36.7282C129.372 37.2092 129.776 37.5792 130.253 37.5792H132.749C133.263 37.5792 133.667 37.1722 133.667 36.6542V14.2329C133.667 13.715 133.227 13.308 132.749 13.308ZM128.637 29.6984C127.463 31.8444 124.709 34.0273 122.139 34.0273C120.707 34.0273 119.386 33.5833 118.248 32.7693C117.734 32.4364 117.293 32.0294 116.853 31.5484C116.596 31.2524 116.339 30.9194 116.118 30.5864C115.2 29.1805 114.65 27.4045 114.65 25.5176C114.65 24.1116 114.943 22.7427 115.494 21.5957C115.825 20.7817 116.265 20.0418 116.853 19.4128C117.807 18.3398 118.908 17.6368 120.23 17.3038C120.854 17.1189 121.478 17.0079 122.139 17.0079C124.122 17.0079 125.921 17.8588 127.242 19.3388C128.858 21.1147 129.592 23.9266 129.592 25.5546C129.629 26.9975 129.262 28.4405 128.637 29.6984Z" fill="#1C1C1C"/>
<path d="M160.945 13.308H158.448C157.971 13.308 157.567 13.678 157.53 14.159V14.196C157.494 14.9359 156.613 15.3059 156.062 14.8249C154.446 13.493 152.317 12.827 149.71 12.827C146.406 12.827 143.763 14.011 141.707 16.3789C139.651 18.7468 138.623 21.7807 138.623 25.4436C138.623 29.1065 139.651 32.1404 141.707 34.5083C143.763 36.8762 146.443 38.0602 149.71 38.0602C152.133 38.0602 154.116 37.4682 155.731 36.3212C156.356 35.8772 157.2 36.2842 157.2 37.0612C157.2 39.4661 156.502 41.3901 155.107 42.833C153.712 44.276 151.877 44.9789 149.527 44.9789C146.737 44.9789 144.314 43.906 142.258 41.7231C141.891 41.3531 141.34 41.3161 140.973 41.6861L139.137 43.499C138.807 43.832 138.77 44.424 139.1 44.757C141.817 47.6799 145.305 49.1598 149.564 49.1598C153.308 49.1598 156.282 48.0498 158.522 45.8669C160.761 43.684 161.862 40.6871 161.862 36.9132V14.2329C161.862 13.715 161.459 13.308 160.945 13.308ZM150.481 33.9903C149.564 33.9903 148.646 33.8053 147.838 33.4353C146.773 33.0653 145.856 32.4364 145.085 31.5114C143.983 30.2534 143.322 28.6625 143.102 26.7385C143.065 26.3316 143.029 25.8876 143.029 25.4806C143.029 25.1476 143.029 24.8516 143.065 24.5556C143.212 22.4467 143.873 20.7077 145.085 19.3758C146.186 18.1178 147.544 17.3778 149.123 17.1559C149.564 17.0449 150.041 17.0079 150.481 17.0079C154.593 17.0079 157.934 20.8187 157.934 25.5176C157.971 30.1794 154.63 33.9903 150.481 33.9903Z" fill="#1C1C1C"/>
<path d="M187.746 16.4159C185.433 14.011 182.459 12.827 178.898 12.827C175.337 12.827 172.363 14.011 170.05 16.4159C167.737 18.8208 166.562 21.8547 166.562 25.4806C166.562 29.1065 167.701 32.1404 170.05 34.5083C172.363 36.8762 175.3 38.0602 178.898 38.0602C182.459 38.0602 185.433 36.8762 187.746 34.5083C190.059 32.1404 191.234 29.1435 191.234 25.4806C191.27 21.8547 190.096 18.8208 187.746 16.4159ZM184.368 31.4744C182.937 33.0653 181.101 33.8423 178.898 33.8423C176.695 33.8423 174.896 33.0653 173.465 31.4744C172.033 29.8834 171.335 27.8855 171.335 25.4806C171.335 23.0387 172.033 21.0037 173.465 19.4128C174.896 17.8218 176.695 17.0079 178.898 17.0079C181.101 17.0079 182.937 17.8218 184.368 19.4128C185.8 21.0037 186.534 23.0387 186.534 25.4806C186.498 27.8855 185.8 29.8834 184.368 31.4744Z" fill="#1C1C1C"/>
</svg>
