<svg width="16" height="17" viewBox="0 0 16 17" fill="none" xmlns="http://www.w3.org/2000/svg">
<path fill-rule="evenodd" clip-rule="evenodd" d="M8.0013 14.9863C11.6832 14.9863 14.668 12.0016 14.668 8.31966C14.668 4.63776 11.6832 1.65299 8.0013 1.65299C4.3194 1.65299 1.33464 4.63776 1.33464 8.31966C1.33464 10.0878 2.03701 11.7835 3.28726 13.0337C4.5375 14.2839 6.23319 14.9863 8.0013 14.9863ZM7.33464 5.65299C7.33464 5.2848 7.63311 4.98633 8.0013 4.98633C8.36949 4.98633 8.66797 5.2848 8.66797 5.65299L8.66797 8.98633C8.66797 9.35452 8.36949 9.65299 8.0013 9.65299C7.63311 9.65299 7.33464 9.35452 7.33464 8.98633L7.33464 5.65299ZM8.66797 10.9863C8.66797 10.6181 8.36949 10.3197 8.0013 10.3197C7.63311 10.3197 7.33464 10.6181 7.33464 10.9863C7.33464 11.3545 7.63311 11.653 8.0013 11.653C8.36949 11.653 8.66797 11.3545 8.66797 10.9863Z" fill="#FF4842"/>
</svg>
